#!OML:ASF E:\Mandelcareful walks\Project 1\Capture day 1\Session 1\Subject1.ASF
:FULLY-SPECIFIED
:DEGREES
398
root -15.8619 15.4933 -10.3365 183.958 233.332 -188.013
lowerback 6.00188 4.67025 -5.29477
upperback 3.82604 5.88388 -0.812272
thorax 0.160248 2.83895 1.75129
lowerneck -17.0768 16.1482 9.59384
upperneck 27.3357 26.5107 -17.8333
head 16.8278 10.0117 -3.29504
rclavicle -1.51871e-013 4.45278e-014
rhumerus -45.8098 24.245 -86.4089
rradius 70.1512
rwrist -15.3306
rhand -9.21102 -16.2686
rfingers 7.12502
rthumb 16.7433 -45.5666
lclavicle -1.51871e-013 4.45278e-014
lhumerus -55.9413 -29.4647 85.7608
lradius 52.8444
lwrist 19.8718
lhand -23.7208 -10.1026
lfingers 7.12502
lthumb 2.74701 19.8595
rfemur -3.18276 -15.7913 3.6532
rtibia 79.1658
rfoot -1.16152 -8.69284
rtoes -5.33785
lfemur -31.2595 19.2153 -33.2955
ltibia 46.9164
lfoot -21.8848 17.6277
ltoes 31.2949
399
root -16.2262 15.3609 -10.1851 181.56 230.749 -185.759
lowerback 7.66134 4.50976 -6.07011
upperback 4.11828 5.48864 -1.32146
thorax -0.441784 2.63428 1.56613
lowerneck -17.0576 16.2803 9.57473
upperneck 26.8577 26.6219 -17.8722
head 16.6072 10.0988 -3.2572
rclavicle -4.27387e-014 2.38542e-014
rhumerus -45.4281 22.9616 -86.337
rradius 68.7222
rwrist -13.3658
rhand -8.73497 -16.1362
rfingers 7.12502
rthumb 17.2015 -45.3949
lclavicle -4.27387e-014 2.38542e-014
lhumerus -51.0375 -29.5205 83.4829
lradius 52.2943
lwrist 19.6173
lhand -25.0946 -6.34303
lfingers 7.12502
lthumb 1.42019 23.632
rfemur -7.83898 -16.1028 3.17353
rtibia 82.9169
rfoot -2.2731 -7.48068
rtoes -9.32667
lfemur -30.0927 17.4722 -33.6397
ltibia 49.7562
lfoot -24.083 15.9077
ltoes 32.8624
400
root -16.5856 15.1998 -10.0444 179.863 228.281 -184.554
lowerback 9.0446 4.44989 -5.55534
upperback 4.66527 5.32588 -2.15499
thorax -0.49659 2.54997 0.363445
lowerneck -16.9702 16.3149 10.0195
upperneck 26.1255 26.3754 -17.8965
head 16.2563 10.1137 -3.37057
rclavicle 8.74653e-015 6.36111e-015
rhumerus -45.2199 21.0743 -86.6395
rradius 68.0653
rwrist -12.3508
rhand -8.51403 -15.8245
rfingers 7.12502
rthumb 17.4142 -45.0644
lclavicle 8.74653e-015 6.36111e-015
lhumerus -46.6807 -29.7247 80.837
lradius 53.7178
lwrist 20.4946
lhand -27.0981 -6.19444
lfingers 7.12502
lthumb -0.51479 23.7847
rfemur -12.0648 -16.1504 3.17723
rtibia 85.5703
rfoot -4.0153 -6.75429
rtoes -11.2702
lfemur -29.0079 16.4864 -33.7312
ltibia 52.2032
lfoot -24.8264 15.8793
ltoes 29.1398
401
root -16.9369 15.1489 -9.88863 178.357 225.687 -183.427
lowerback 10.5965 4.42738 -5.88162
upperback 4.93156 5.13303 -2.37019
thorax -1.06121 2.45128 0.235138
lowerneck -16.527 16.2875 9.83002
upperneck 25.5497 26.2486 -17.8506
head 15.8115 10.1408 -3.37317
rclavicle -1.00585e-013 -6.36111e-015
rhumerus -46.0288 20.1148 -86.4329
rradius 68.386
rwrist -12.7826
rhand -8.47411 -15.7333
rfingers 7.12502
rthumb 17.4526 -44.9698
lclavicle -1.00585e-013 -6.36111e-015
lhumerus -43.272 -29.3125 79.9092
lradius 56.0474
lwrist 22.9157
lhand -28.7877 -8.4985
lfingers 7.12502
lthumb -2.14671 21.4704
rfemur -16.0469 -14.724 4.05447
rtibia 86.4354
rfoot -6.21102 -8.12515
rtoes -9.25466
lfemur -27.2277 15.1908 -33.6461
ltibia 54.0618
lfoot -27.1138 14.5406
ltoes 29.621
402
root -17.2928 15.0894 -9.73863 177.291 222.779 -182.225
lowerback 11.3703 4.28235 -6.3519
upperback 5.27334 4.83044 -2.57609
thorax -1.12488 2.28775 0.277299
lowerneck -16.2016 16.262 9.67343
upperneck 24.9196 26.1891 -18.0533
head 15.4519 10.1627 -3.45166
rclavicle 9.54166e-014 -2.70347e-014
rhumerus -46.7575 19.4725 -86.2496
rradius 69.1229
rwrist -13.9418
rhand -8.60873 -15.9787
rfingers 7.12502
rthumb 17.323 -45.2267
lclavicle 9.54166e-014 -2.70347e-014
lhumerus -40.7414 -29.2572 79.6297
lradius 59.7828
lwrist 25.7907
lhand -29.9942 -10.3826
lfingers 7.12502
lthumb -3.31185 19.5714
rfemur -20.3032 -13.7489 4.34779
rtibia 86.2513
rfoot -8.30971 -9.69084
rtoes -7.30549
lfemur -25.7026 13.6029 -33.9464
ltibia 55.2084
lfoot -28.3762 14.3153
ltoes 27.8218
403
root -17.6529 15.0716 -9.57288 176.956 219.515 -181.339
lowerback 12.1043 3.86379 -6.69108
upperback 5.0731 4.15758 -2.89627
thorax -1.69405 1.96861 0.167944
lowerneck -15.5903 16.4364 10.1657
upperneck 24.6751 26.3651 -18.2244
head 15.3555 10.3307 -3.57343
rclavicle -1.22054e-013 4.77083e-014
rhumerus -48.2099 19.127 -86.7727
rradius 69.9518
rwrist -15.0798
rhand -8.24963 -16.0771
rfingers 7.12502
rthumb 17.6686 -45.2943
lclavicle -1.22054e-013 4.77083e-014
lhumerus -39.8009 -29.4613 79.6987
lradius 64.3086
lwrist 28.1011
lhand -30.0875 -11.4033
lfingers 7.12502
lthumb -3.40198 18.5493
rfemur -24.1601 -13.2769 4.43253
rtibia 84.4871
rfoot -10.4919 -11.5761
rtoes -6.74641
lfemur -24.2984 11.1026 -33.9043
ltibia 56.0558
lfoot -30.2524 12.2396
ltoes 30.8541
404
root -18.0224 15.0593 -9.40372 177.105 216.169 -180.857
lowerback 12.0567 3.23967 -7.39227
upperback 5.15213 3.28056 -2.72598
thorax -1.58115 1.52324 0.864074
lowerneck -15.1766 16.7887 10.2921
upperneck 24.2053 26.9485 -18.695
head 15.2864 10.6022 -3.63258
rclavicle -1.19271e-014 2.38542e-014
rhumerus -48.9366 19.7305 -86.6973
rradius 70.5767
rwrist -16.2354
rhand -7.09596 -16.0204
rfingers 7.12502
rthumb 18.7785 -45.134
lclavicle -1.19271e-014 2.38542e-014
lhumerus -38.6651 -28.8809 80.3639
lradius 68.3347
lwrist 29.4987
lhand -29.5791 -11.278
lfingers 7.12502
lthumb -2.91099 18.6819
rfemur -27.4781 -12.8267 4.51304
rtibia 81.4625
rfoot -12.8228 -13.4905
rtoes -8.22026
lfemur -23.0505 9.04345 -33.7578
ltibia 56.433
lfoot -30.5152 11.9983
ltoes 28.2237
405
root -18.397 15.0867 -9.2245 177.445 213.229 -180.665
lowerback 12.516 2.88592 -7.60153
upperback 4.78919 2.73266 -2.70905
thorax -2.18241 1.27803 1.04683
lowerneck -14.8483 16.903 10.3838
upperneck 24.2895 27.128 -18.6118
head 15.2835 10.7194 -3.5904
rclavicle 3.29983e-014 -4.77083e-015
rhumerus -50.2264 19.6544 -86.9167
rradius 71.0338
rwrist -16.9535
rhand -6.89648 -16.1618
rfingers 7.12502
rthumb 18.9704 -45.2567
lclavicle 3.29983e-014 -4.77083e-015
lhumerus -38.5347 -29.436 81.494
lradius 72.2471
lwrist 30.9935
lhand -27.9685 -11.9492
lfingers 7.12502
lthumb -1.35545 18.0263
rfemur -29.9731 -11.4732 4.62652
rtibia 76.928
rfoot -14.8935 -15.8511
rtoes -12.9428
lfemur -21.6564 7.4365 -33.1178
ltibia 56.534
lfoot -30.8068 10.9299
ltoes 27.4764
406
root -18.7735 15.1617 -9.02783 177.958 210.563 -180.782
lowerback 12.7721 2.65072 -7.46588
upperback 4.46473 2.40427 -2.70209
thorax -2.63457 1.14025 1.01095
lowerneck -14.7908 16.9683 10.379
upperneck 24.5583 27.2284 -18.3396
head 15.3495 10.7819 -3.46752
rclavicle -1.86858e-014 6.99722e-014
rhumerus -51.4209 19.2127 -87.1321
rradius 71.3362
rwrist -17.2474
rhand -7.5966 -16.3709
rfingers 7.12502
rthumb 18.297 -45.5303
lclavicle -1.86858e-014 6.99722e-014
lhumerus -38.6706 -30.0481 82.6622
lradius 76.0467
lwrist 31.4437
lhand -25.4938 -13.1868
lfingers 7.12502
lthumb 1.03462 16.7905
rfemur -31.431 -9.52168 4.63827
rtibia 70.9799
rfoot -16.2902 -18.0029
rtoes -15.2186
lfemur -20.0756 6.18409 -32.0409
ltibia 56.1785
lfoot -31.0202 9.62392
ltoes 27.5607
407
root -19.1412 15.2711 -8.81278 178.555 208.023 -181.144
lowerback 12.4055 2.44992 -6.91439
upperback 4.51784 2.25648 -2.6936
thorax -2.35188 1.0657 0.751604
lowerneck -15.0518 16.9977 10.2436
upperneck 24.6783 27.2671 -18.1151
head 15.3928 10.7897 -3.33275
rclavicle 3.89618e-014 2.06736e-014
rhumerus -51.9784 18.2648 -87.0935
rradius 71.4005
rwrist -17.3377
rhand -7.96462 -16.4356
rfingers 7.12502
rthumb 17.9429 -45.628
lclavicle 3.89618e-014 2.06736e-014
lhumerus -38.5141 -30.7246 83.7376
lradius 79.4566
lwrist 31.064
lhand -23.1435 -15.151
lfingers 7.12502
lthumb 3.30456 14.8031
rfemur -31.9183 -7.54725 4.38344
rtibia 63.8814
rfoot -16.7359 -18.5741
rtoes -17.0094
lfemur -18.368 4.95498 -30.6879
ltibia 55.467
lfoot -31.1691 8.65707
ltoes 27.577
408
root -19.4993 15.3902 -8.60412 179.415 205.23 -181.615
lowerback 12.2131 2.16004 -6.2768
upperback 4.26479 1.97018 -2.58257
thorax -2.48139 0.939722 0.55668
lowerneck -15.051 16.9643 10.1592
upperneck 24.8428 27.2488 -17.9576
head 15.4147 10.788 -3.26894
rclavicle -5.725e-014 -4.13472e-014
rhumerus -52.7418 17.1658 -87.0545
rradius 71.2784
rwrist -17.4386
rhand -8.08049 -16.5402
rfingers 7.12502
rthumb 17.8314 -45.7427
lclavicle -5.725e-014 -4.13472e-014
lhumerus -38.9091 -31.1464 85.3974
lradius 82.135
lwrist 29.6223
lhand -21.5743 -17.1589
lfingers 7.12502
lthumb 4.81985 12.7662
rfemur -31.8768 -5.46043 3.82571
rtibia 56.0574
rfoot -12.7309 -17.7433
rtoes -22.0603
lfemur -16.9786 3.13761 -29.1932
ltibia 54.57
lfoot -30.7881 8.06315
ltoes 26.1711
